Coordinates
version=1
nRows=32
nColumns=12
inDegrees=yes

Units are S.I. units (second, meters, Newtons, ...)
Angles are in degrees

endheader
time	SC_y	SC_z	SC_x	AC_y	AC_z	AC_x	GH_y	GH_z	GH_yy	EL_x	PS_y
       0.0              -51.41          14.47          63.24          59.52          -17.4          9.246         -173.8         -1.047          70.53          128.5          59.54
   0.01177              -51.41          14.47          63.24          59.52          -17.4          9.244         -173.7         -1.045          70.51          128.5          59.55
   0.02353               -51.4          14.47          63.23          59.52         -17.39          9.243         -173.7         -1.042           70.5          128.4          59.56
    0.0353               -51.4          14.47          63.22          59.52         -17.39          9.241         -173.7         -1.039          70.48          128.4          59.57
   0.04707               -51.4          14.47          63.21          59.52         -17.39           9.24         -173.6         -1.036          70.46          128.4          59.58
   0.05884              -51.39          14.47          63.21          59.51         -17.39          9.238         -173.6         -1.033          70.45          128.4           59.6
    0.0706              -51.39          14.47           63.2          59.51         -17.38          9.236         -173.5         -1.029          70.43          128.3          59.61
   0.08237              -51.39          14.47          63.19          59.51         -17.38          9.234         -173.5         -1.025          70.41          128.3          59.63
   0.09414              -51.38          14.46          63.18          59.51         -17.38          9.232         -173.4         -1.021          70.38          128.3          59.64
    0.1059              -51.38          14.46          63.17          59.51         -17.37          9.229         -173.4         -1.017          70.36          128.3          59.66
    0.1177              -51.38          14.46          63.15          59.51         -17.37          9.227         -173.3         -1.012          70.33          128.2          59.68
    0.1294              -51.37          14.46          63.14          59.51         -17.36          9.224         -173.2         -1.007           70.3          128.2           59.7
    0.1412              -51.37          14.46          63.13          59.51         -17.36          9.221         -173.2         -1.002          70.27          128.2          59.72
     0.153              -51.36          14.45          63.11          59.51         -17.35          9.218         -173.1        -0.9962          70.24          128.1          59.75
    0.1647              -51.36          14.45          63.09          59.51         -17.35          9.215         -173.0        -0.9899          70.21          128.1          59.78
    0.1765              -51.35          14.45          63.08          59.51         -17.34          9.211         -172.9        -0.9831          70.17          128.0           59.8
    0.1883              -51.34          14.45          63.06          59.51         -17.33          9.207         -172.8        -0.9756          70.13          128.0          59.83
       0.2              -51.34          14.44          63.04          59.51         -17.33          9.202         -172.7        -0.9675          70.08          127.9          59.87
    0.2118              -51.33          14.44          63.01           59.5         -17.32          9.198         -172.6        -0.9587          70.03          127.9           59.9
    0.2236              -51.32          14.44          62.99           59.5         -17.31          9.192         -172.4         -0.949          69.98          127.8          59.94
    0.2353              -51.31          14.43          62.96           59.5          -17.3          9.187         -172.3        -0.9383          69.92          127.7          59.99
    0.2471               -51.3          14.43          62.93           59.5         -17.29           9.18         -172.1        -0.9266          69.85          127.6          60.04
    0.2589              -51.29          14.43           62.9           59.5         -17.28          9.173         -172.0        -0.9137          69.78          127.5          60.09
    0.2706              -51.27          14.42          62.86           59.5         -17.26          9.166         -171.8        -0.8994           69.7          127.4          60.15
    0.2824              -51.26          14.41          62.82          59.49         -17.25          9.157         -171.6        -0.8834          69.61          127.3          60.22
    0.2942              -51.24          14.41          62.77          59.49         -17.23          9.147         -171.3        -0.8657          69.51          127.2          60.29
    0.3059              -51.23           14.4          62.72          59.49         -17.21          9.137         -171.1        -0.8458           69.4          127.1          60.37
    0.3177              -51.21          14.39          62.66          59.48         -17.19          9.124         -170.8        -0.8234          69.28          126.9          60.46
    0.3295              -51.18          14.38           62.6          59.48         -17.17          9.111         -170.4        -0.7981          69.14          126.7          60.57
    0.3412              -51.16          14.37          62.52          59.48         -17.14          9.095         -170.0        -0.7693          68.98          126.6          60.69
     0.353              -51.13          14.36          62.44          59.47         -17.11          9.078         -169.6        -0.7365          68.79          126.3          60.82
    0.3648              -51.09          14.35          62.34          59.47         -17.08          9.057         -169.1        -0.6989          68.58          126.1          60.98
